<?xml version="1.0" encoding="UTF-8" standalone="no"?>
<!DOCTYPE svg PUBLIC "-//W3C//DTD SVG 1.1//EN"
 "http://www.w3.org/Graphics/SVG/1.1/DTD/svg11.dtd">
<!-- Generated by graphviz version 2.40.1 (20161225.0304)
 -->
<!-- Title: G Pages: 1 -->
<svg width="589pt" height="498pt"
 viewBox="0.00 0.00 589.48 498.00" xmlns="http://www.w3.org/2000/svg" xmlns:xlink="http://www.w3.org/1999/xlink">
<g id="graph0" class="graph" transform="scale(1 1) rotate(0) translate(4 494)">
<title>G</title>
<polygon fill="#ffffff" stroke="transparent" points="-4,4 -4,-494 585.477,-494 585.477,4 -4,4"/>
<!-- A0 -->
<g id="node1" class="node">
<title>A0</title>
<polygon fill="none" stroke="#000000" points="246.3321,-344 162.1099,-344 162.1099,-308 246.3321,-308 246.3321,-344"/>
<text text-anchor="middle" x="204.221" y="-323" font-family="Helvetica,sans-Serif" font-size="10.00" fill="#000000">PlayerMover</text>
</g>
<!-- A1 -->
<g id="node2" class="node">
<title>A1</title>
<polygon fill="none" stroke="#000000" points="417.7406,-367 318.4094,-367 318.4094,-331 417.7406,-331 417.7406,-367"/>
<text text-anchor="middle" x="368.075" y="-346" font-family="Helvetica,sans-Serif" font-size="10.00" fill="#000000">PlayerController</text>
</g>
<!-- A0&#45;&gt;A1 -->
<g id="edge1" class="edge">
<title>A0&#45;&gt;A1</title>
<path fill="none" stroke="#000000" d="M256.4727,-333.3345C272.2094,-335.5435 289.6351,-337.9895 305.947,-340.2792"/>
<polygon fill="#000000" stroke="#000000" points="246.4175,-331.9231 256.946,-328.8569 251.3689,-332.6181 256.3204,-333.3132 256.3204,-333.3132 256.3204,-333.3132 251.3689,-332.6181 255.6948,-337.7695 246.4175,-331.9231 246.4175,-331.9231"/>
<polygon fill="none" stroke="#000000" points="306.2737,-340.3249 312.7715,-337.1979 318.1572,-341.9931 311.6594,-345.1202 306.2737,-340.3249"/>
<text text-anchor="middle" x="265.5426" y="-323.0724" font-family="Helvetica,sans-Serif" font-size="10.00" fill="#000000">1</text>
</g>
<!-- A5 -->
<g id="node6" class="node">
<title>A5</title>
<polygon fill="none" stroke="#000000" points="581.256,-286 483.142,-286 483.142,-250 581.256,-250 581.256,-286"/>
<text text-anchor="middle" x="532.199" y="-265" font-family="Helvetica,sans-Serif" font-size="10.00" fill="#000000">GameController</text>
</g>
<!-- A1&#45;&gt;A5 -->
<g id="edge5" class="edge">
<title>A1&#45;&gt;A5</title>
<path fill="none" stroke="#000000" d="M422.6451,-326.7618C426.1398,-325.1888 429.59,-323.5941 432.921,-322 451.9396,-312.8983 472.4848,-301.9227 489.9237,-292.2502"/>
<polygon fill="#000000" stroke="#000000" points="413.3419,-330.8591 420.6798,-322.7101 417.9178,-328.8438 422.4936,-326.8284 422.4936,-326.8284 422.4936,-326.8284 417.9178,-328.8438 424.3074,-330.9467 413.3419,-330.8591 413.3419,-330.8591"/>
<polygon fill="none" stroke="#000000" points="490.4158,-291.9749 493.6984,-285.5543 500.8877,-286.1149 497.6051,-292.5356 490.4158,-291.9749"/>
<text text-anchor="middle" x="426.5236" y="-312.8177" font-family="Helvetica,sans-Serif" font-size="10.00" fill="#000000">1</text>
</g>
<!-- A2 -->
<g id="node3" class="node">
<title>A2</title>
<polygon fill="none" stroke="#000000" points="253.237,-490 155.205,-490 155.205,-454 253.237,-454 253.237,-490"/>
<text text-anchor="middle" x="204.221" y="-469" font-family="Helvetica,sans-Serif" font-size="10.00" fill="#000000">PlayerPaintable</text>
</g>
<!-- A2&#45;&gt;A1 -->
<g id="edge2" class="edge">
<title>A2&#45;&gt;A1</title>
<path fill="none" stroke="#000000" d="M247.5938,-448.7091C249.518,-447.4868 251.4049,-446.2477 253.229,-445 284.3842,-423.6899 317.1572,-395.6572 339.6825,-375.3906"/>
<polygon fill="#000000" stroke="#000000" points="238.9981,-453.9342 245.2057,-444.8945 243.2707,-451.337 247.5432,-448.7398 247.5432,-448.7398 247.5432,-448.7398 243.2707,-451.337 249.8807,-452.5851 238.9981,-453.9342 238.9981,-453.9342"/>
<polygon fill="none" stroke="#000000" points="339.7918,-375.2913 341.5435,-368.2962 348.6742,-367.2226 346.9226,-374.2178 339.7918,-375.2913"/>
<text text-anchor="middle" x="250.0966" y="-434.2962" font-family="Helvetica,sans-Serif" font-size="10.00" fill="#000000">1</text>
</g>
<!-- A3 -->
<g id="node4" class="node">
<title>A3</title>
<polygon fill="none" stroke="#000000" points="89.0499,-390 16.1631,-390 16.1631,-354 89.0499,-354 89.0499,-390"/>
<text text-anchor="middle" x="52.6065" y="-369" font-family="Helvetica,sans-Serif" font-size="10.00" fill="#000000">IHasColor</text>
</g>
<!-- A3&#45;&gt;A1 -->
<g id="edge3" class="edge">
<title>A3&#45;&gt;A1</title>
<path fill="none" stroke="#000000" d="M99.1931,-368.6035C157.8092,-364.3299 258.0616,-357.0208 318.1911,-352.6369"/>
<polygon fill="#000000" stroke="#000000" points="89.1029,-369.3391 98.7492,-364.1238 94.0897,-368.9755 99.0765,-368.6119 99.0765,-368.6119 99.0765,-368.6119 94.0897,-368.9755 99.4037,-373.1 89.1029,-369.3391 89.1029,-369.3391"/>
</g>
<!-- A3&#45;&gt;A2 -->
<g id="edge17" class="edge">
<title>A3&#45;&gt;A2</title>
<path fill="none" stroke="#000000" d="M84.6476,-396.2352C104.5628,-410.9338 130.9167,-429.7348 155.213,-445 159.9837,-447.9974 165.1083,-451.0226 170.1815,-453.909"/>
<polygon fill="none" stroke="#000000" points="86.6469,-393.3604 76.5315,-390.2093 82.474,-398.9807 86.6469,-393.3604"/>
</g>
<!-- A9 -->
<g id="node10" class="node">
<title>A9</title>
<polygon fill="none" stroke="#000000" points="245.0991,-290 163.3429,-290 163.3429,-254 245.0991,-254 245.0991,-290"/>
<text text-anchor="middle" x="204.221" y="-269" font-family="Helvetica,sans-Serif" font-size="10.00" fill="#000000">ColorBarrier</text>
</g>
<!-- A3&#45;&gt;A9 -->
<g id="edge15" class="edge">
<title>A3&#45;&gt;A9</title>
<path fill="none" stroke="#000000" d="M84.6476,-347.7648C104.5628,-333.0662 130.9167,-314.2652 155.213,-299 159.9837,-296.0026 165.1083,-292.9774 170.1815,-290.091"/>
<polygon fill="none" stroke="#000000" points="82.474,-345.0193 76.5315,-353.7907 86.6469,-350.6396 82.474,-345.0193"/>
</g>
<!-- A13 -->
<g id="node14" class="node">
<title>A13</title>
<polygon fill="none" stroke="#000000" points="235.0569,-236 173.3851,-236 173.3851,-200 235.0569,-200 235.0569,-236"/>
<text text-anchor="middle" x="204.221" y="-215" font-family="Helvetica,sans-Serif" font-size="10.00" fill="#000000">Jumper</text>
</g>
<!-- A3&#45;&gt;A13 -->
<g id="edge16" class="edge">
<title>A3&#45;&gt;A13</title>
<path fill="none" stroke="#000000" d="M69.5677,-345.3497C88.1101,-317.7389 119.9232,-274.5676 155.213,-245 160.7231,-240.3834 167.1426,-236.1797 173.4854,-232.536"/>
<polygon fill="none" stroke="#000000" points="66.6222,-343.4586 64.0261,-353.7305 72.4612,-347.3195 66.6222,-343.4586"/>
</g>
<!-- A14 -->
<g id="node15" class="node">
<title>A14</title>
<polygon fill="none" stroke="#000000" points="250.1091,-436 158.3329,-436 158.3329,-400 250.1091,-400 250.1091,-436"/>
<text text-anchor="middle" x="204.221" y="-415" font-family="Helvetica,sans-Serif" font-size="10.00" fill="#000000">ColorDeployer</text>
</g>
<!-- A3&#45;&gt;A14 -->
<g id="edge14" class="edge">
<title>A3&#45;&gt;A14</title>
<path fill="none" stroke="#000000" d="M98.499,-385.9238C117.387,-391.6545 139.2261,-398.2805 158.1343,-404.0172"/>
<polygon fill="none" stroke="#000000" points="99.5074,-382.5723 88.922,-383.0181 97.475,-389.2708 99.5074,-382.5723"/>
</g>
<!-- A4 -->
<g id="node5" class="node">
<title>A4</title>
<polygon fill="none" stroke="#000000" points="105.3197,-167 -.1067,-167 -.1067,-131 105.3197,-131 105.3197,-167"/>
<text text-anchor="middle" x="52.6065" y="-146" font-family="Helvetica,sans-Serif" font-size="10.00" fill="#000000">ICollideWithColor</text>
</g>
<!-- A4&#45;&gt;A1 -->
<g id="edge4" class="edge">
<title>A4&#45;&gt;A1</title>
<path fill="none" stroke="#000000" d="M115.4463,-155.5485C166.306,-162.0222 232.7341,-173.5163 253.229,-191 300.6403,-231.4453 259.8271,-277.2794 303.229,-322 307.5605,-326.4631 312.7397,-330.2195 318.2571,-333.3736"/>
<polygon fill="#000000" stroke="#000000" points="105.5001,-154.3204 115.9762,-151.0798 110.4624,-154.9331 115.4247,-155.5459 115.4247,-155.5459 115.4247,-155.5459 110.4624,-154.9331 114.8733,-160.012 105.5001,-154.3204 105.5001,-154.3204"/>
</g>
<!-- A4&#45;&gt;A9 -->
<g id="edge9" class="edge">
<title>A4&#45;&gt;A9</title>
<path fill="none" stroke="#000000" d="M76.3494,-174.4838C96.2326,-194.988 125.978,-223.7804 155.213,-245 159.4582,-248.0813 164.0931,-251.0641 168.7644,-253.8527"/>
<polygon fill="none" stroke="#000000" points="78.6813,-171.8588 69.2334,-167.0643 73.6293,-176.7042 78.6813,-171.8588"/>
</g>
<!-- A10 -->
<g id="node11" class="node">
<title>A10</title>
<polygon fill="none" stroke="#000000" points="243.2842,-144 165.1578,-144 165.1578,-108 243.2842,-108 243.2842,-144"/>
<text text-anchor="middle" x="204.221" y="-123" font-family="Helvetica,sans-Serif" font-size="10.00" fill="#000000">Respawner</text>
</g>
<!-- A4&#45;&gt;A10 -->
<g id="edge10" class="edge">
<title>A4&#45;&gt;A10</title>
<path fill="none" stroke="#000000" d="M115.8392,-139.4076C132.449,-136.8879 149.8873,-134.2425 164.8436,-131.9736"/>
<polygon fill="none" stroke="#000000" points="114.9958,-135.9954 105.6339,-140.9557 116.0458,-142.9162 114.9958,-135.9954"/>
</g>
<!-- A11 -->
<g id="node12" class="node">
<title>A11</title>
<polygon fill="none" stroke="#000000" points="233.227,-90 175.215,-90 175.215,-54 233.227,-54 233.227,-90"/>
<text text-anchor="middle" x="204.221" y="-69" font-family="Helvetica,sans-Serif" font-size="10.00" fill="#000000">Spikes</text>
</g>
<!-- A4&#45;&gt;A11 -->
<g id="edge11" class="edge">
<title>A4&#45;&gt;A11</title>
<path fill="none" stroke="#000000" d="M97.1305,-126.3878C122.2506,-113.6301 152.9286,-98.0497 175.0008,-86.84"/>
<polygon fill="none" stroke="#000000" points="95.4845,-123.2981 88.1534,-130.9469 98.6543,-129.5393 95.4845,-123.2981"/>
</g>
<!-- A12 -->
<g id="node13" class="node">
<title>A12</title>
<polygon fill="none" stroke="#000000" points="231.221,-36 177.221,-36 177.221,0 231.221,0 231.221,-36"/>
<text text-anchor="middle" x="204.221" y="-15" font-family="Helvetica,sans-Serif" font-size="10.00" fill="#000000">Laser</text>
</g>
<!-- A4&#45;&gt;A12 -->
<g id="edge12" class="edge">
<title>A4&#45;&gt;A12</title>
<path fill="none" stroke="#000000" d="M74.3142,-123.1041C93.9438,-100.6937 124.4113,-68.3112 155.213,-45 161.9519,-39.8999 169.7706,-35.1479 177.1568,-31.0965"/>
<polygon fill="none" stroke="#000000" points="71.4879,-121.0215 67.592,-130.8741 76.7817,-125.6014 71.4879,-121.0215"/>
</g>
<!-- A4&#45;&gt;A13 -->
<g id="edge13" class="edge">
<title>A4&#45;&gt;A13</title>
<path fill="none" stroke="#000000" d="M101.5852,-171.2903C125.1367,-182.0086 152.6546,-194.532 173.2653,-203.912"/>
<polygon fill="none" stroke="#000000" points="102.993,-168.0856 92.4414,-167.1289 100.0934,-174.4568 102.993,-168.0856"/>
</g>
<!-- A6 -->
<g id="node7" class="node">
<title>A6</title>
<polygon fill="none" stroke="#000000" points="407.1263,-313 329.0237,-313 329.0237,-277 407.1263,-277 407.1263,-313"/>
<text text-anchor="middle" x="368.075" y="-292" font-family="Helvetica,sans-Serif" font-size="10.00" fill="#000000">WaitViewer</text>
</g>
<!-- A6&#45;&gt;A5 -->
<g id="edge6" class="edge">
<title>A6&#45;&gt;A5</title>
<path fill="none" stroke="#000000" d="M417.2774,-286.9057C434.1426,-284.1312 453.2258,-280.9919 470.9273,-278.0798"/>
<polygon fill="#000000" stroke="#000000" points="407.3868,-288.5328 416.5236,-282.4691 412.3205,-287.7211 417.2542,-286.9095 417.2542,-286.9095 417.2542,-286.9095 412.3205,-287.7211 417.9847,-291.3498 407.3868,-288.5328 407.3868,-288.5328"/>
<polygon fill="none" stroke="#000000" points="471.0764,-278.0553 476.3475,-273.1344 482.9173,-276.1073 477.6462,-281.0283 471.0764,-278.0553"/>
<text text-anchor="middle" x="423.9005" y="-274.2502" font-family="Helvetica,sans-Serif" font-size="10.00" fill="#000000">1</text>
</g>
<!-- A7 -->
<g id="node8" class="node">
<title>A7</title>
<polygon fill="none" stroke="#000000" points="432.7674,-259 303.3826,-259 303.3826,-223 432.7674,-223 432.7674,-259"/>
<text text-anchor="middle" x="368.075" y="-238" font-family="Helvetica,sans-Serif" font-size="10.00" fill="#000000">GameStorageManager</text>
</g>
<!-- A7&#45;&gt;A5 -->
<g id="edge7" class="edge">
<title>A7&#45;&gt;A5</title>
<path fill="none" stroke="#000000" d="M443.195,-253.358C452.4798,-254.8854 461.884,-256.4325 470.9276,-257.9203"/>
<polygon fill="#000000" stroke="#000000" points="432.9412,-251.6711 443.539,-248.8542 437.8748,-252.4828 442.8085,-253.2945 442.8085,-253.2945 442.8085,-253.2945 437.8748,-252.4828 442.078,-257.7348 432.9412,-251.6711 432.9412,-251.6711"/>
<polygon fill="none" stroke="#000000" points="471.1503,-257.9568 477.7201,-254.9839 482.9911,-259.9048 476.4214,-262.8778 471.1503,-257.9568"/>
<text text-anchor="middle" x="452.199" y="-243.2732" font-family="Helvetica,sans-Serif" font-size="10.00" fill="#000000">1</text>
</g>
<!-- A8 -->
<g id="node9" class="node">
<title>A8</title>
<polygon fill="none" stroke="#000000" points="405.1981,-205 330.9519,-205 330.9519,-169 405.1981,-169 405.1981,-205"/>
<text text-anchor="middle" x="368.075" y="-184" font-family="Helvetica,sans-Serif" font-size="10.00" fill="#000000">GameGod</text>
</g>
<!-- A8&#45;&gt;A5 -->
<g id="edge8" class="edge">
<title>A8&#45;&gt;A5</title>
<path fill="none" stroke="#000000" d="M414.9101,-205.8199C421.0123,-208.4705 427.1459,-211.2363 432.921,-214 451.9396,-223.1017 472.4848,-234.0773 489.9237,-243.7498"/>
<polygon fill="#000000" stroke="#000000" points="405.4028,-201.7661 416.3665,-201.5489 410.0022,-203.7272 414.6015,-205.6884 414.6015,-205.6884 414.6015,-205.6884 410.0022,-203.7272 412.8365,-209.8278 405.4028,-201.7661 405.4028,-201.7661"/>
<polygon fill="none" stroke="#000000" points="490.4158,-244.0251 497.6051,-243.4644 500.8877,-249.8851 493.6984,-250.4457 490.4158,-244.0251"/>
<text text-anchor="middle" x="425.3917" y="-198.1004" font-family="Helvetica,sans-Serif" font-size="10.00" fill="#000000">1</text>
</g>
</g>
</svg>
