<?xml version="1.0" encoding="UTF-8" standalone="no"?><svg xmlns="http://www.w3.org/2000/svg" xmlns:xlink="http://www.w3.org/1999/xlink" contentScriptType="application/ecmascript" contentStyleType="text/css" height="922px" preserveAspectRatio="none" style="width:671px;height:922px;" version="1.1" viewBox="0 0 671 922" width="671px" zoomAndPan="magnify"><defs><filter height="300%" id="fnzretdqr0vtf" width="300%" x="-1" y="-1"><feGaussianBlur result="blurOut" stdDeviation="2.0"/><feColorMatrix in="blurOut" result="blurOut2" type="matrix" values="0 0 0 0 0 0 0 0 0 0 0 0 0 0 0 0 0 0 .4 0"/><feOffset dx="4.0" dy="4.0" in="blurOut2" result="blurOut3"/><feBlend in="SourceGraphic" in2="blurOut3" mode="normal"/></filter></defs><g><!--class PlayerPainter--><rect fill="#FEFECE" filter="url(#fnzretdqr0vtf)" height="48" id="PlayerPainter" style="stroke: #A80036; stroke-width: 1.5;" width="107" x="141.5" y="177"/><ellipse cx="156.5" cy="193" fill="#ADD1B2" rx="11" ry="11" style="stroke: #A80036; stroke-width: 1.0;"/><path d="M158.9731,199.1431 Q158.3921,199.4419 157.7529,199.5913 Q157.1138,199.7407 156.4082,199.7407 Q153.9014,199.7407 152.5815,198.0889 Q151.2617,196.437 151.2617,193.3159 Q151.2617,190.1865 152.5815,188.5347 Q153.9014,186.8828 156.4082,186.8828 Q157.1138,186.8828 157.7612,187.0322 Q158.4087,187.1816 158.9731,187.4805 L158.9731,190.2031 Q158.3423,189.6221 157.7488,189.3523 Q157.1553,189.0825 156.5244,189.0825 Q155.1797,189.0825 154.4949,190.1492 Q153.8101,191.2158 153.8101,193.3159 Q153.8101,195.4077 154.4949,196.4744 Q155.1797,197.541 156.5244,197.541 Q157.1553,197.541 157.7488,197.2712 Q158.3423,197.0015 158.9731,196.4204 Z "/><text fill="#000000" font-family="sans-serif" font-size="12" lengthAdjust="spacingAndGlyphs" textLength="75" x="170.5" y="197.5352">PlayerPainter</text><line style="stroke: #A80036; stroke-width: 1.5;" x1="142.5" x2="247.5" y1="209" y2="209"/><line style="stroke: #A80036; stroke-width: 1.5;" x1="142.5" x2="247.5" y1="217" y2="217"/><!--class PlayerController--><rect fill="#FEFECE" filter="url(#fnzretdqr0vtf)" height="48" id="PlayerController" style="stroke: #A80036; stroke-width: 1.5;" width="123" x="337" y="174"/><ellipse cx="352" cy="190" fill="#ADD1B2" rx="11" ry="11" style="stroke: #A80036; stroke-width: 1.0;"/><path d="M354.4731,196.1431 Q353.8921,196.4419 353.2529,196.5913 Q352.6138,196.7407 351.9082,196.7407 Q349.4014,196.7407 348.0815,195.0889 Q346.7617,193.437 346.7617,190.3159 Q346.7617,187.1865 348.0815,185.5347 Q349.4014,183.8828 351.9082,183.8828 Q352.6138,183.8828 353.2612,184.0322 Q353.9087,184.1816 354.4731,184.4805 L354.4731,187.2031 Q353.8423,186.6221 353.2488,186.3523 Q352.6553,186.0825 352.0244,186.0825 Q350.6797,186.0825 349.9949,187.1492 Q349.3101,188.2158 349.3101,190.3159 Q349.3101,192.4077 349.9949,193.4744 Q350.6797,194.541 352.0244,194.541 Q352.6553,194.541 353.2488,194.2712 Q353.8423,194.0015 354.4731,193.4204 Z "/><text fill="#000000" font-family="sans-serif" font-size="12" lengthAdjust="spacingAndGlyphs" textLength="91" x="366" y="194.5352">PlayerController</text><line style="stroke: #A80036; stroke-width: 1.5;" x1="338" x2="459" y1="206" y2="206"/><line style="stroke: #A80036; stroke-width: 1.5;" x1="338" x2="459" y1="214" y2="214"/><!--class IHasColor--><rect fill="#FEFECE" filter="url(#fnzretdqr0vtf)" height="48" id="IHasColor" style="stroke: #A80036; stroke-width: 1.5;" width="87" x="151.5" y="420"/><ellipse cx="166.5" cy="436" fill="#ADD1B2" rx="11" ry="11" style="stroke: #A80036; stroke-width: 1.0;"/><path d="M168.9731,442.1431 Q168.3921,442.4419 167.7529,442.5913 Q167.1138,442.7407 166.4082,442.7407 Q163.9014,442.7407 162.5815,441.0889 Q161.2617,439.437 161.2617,436.3159 Q161.2617,433.1865 162.5815,431.5347 Q163.9014,429.8828 166.4082,429.8828 Q167.1138,429.8828 167.7612,430.0322 Q168.4087,430.1816 168.9731,430.4805 L168.9731,433.2031 Q168.3423,432.6221 167.7488,432.3523 Q167.1553,432.0825 166.5244,432.0825 Q165.1797,432.0825 164.4949,433.1492 Q163.8101,434.2158 163.8101,436.3159 Q163.8101,438.4077 164.4949,439.4744 Q165.1797,440.541 166.5244,440.541 Q167.1553,440.541 167.7488,440.2712 Q168.3423,440.0015 168.9731,439.4204 Z "/><text fill="#000000" font-family="sans-serif" font-size="12" lengthAdjust="spacingAndGlyphs" textLength="55" x="180.5" y="440.5352">IHasColor</text><line style="stroke: #A80036; stroke-width: 1.5;" x1="152.5" x2="237.5" y1="452" y2="452"/><line style="stroke: #A80036; stroke-width: 1.5;" x1="152.5" x2="237.5" y1="460" y2="460"/><!--class ICollideWithColor--><rect fill="#FEFECE" filter="url(#fnzretdqr0vtf)" height="48" id="ICollideWithColor" style="stroke: #A80036; stroke-width: 1.5;" width="128" x="131" y="645"/><ellipse cx="146" cy="661" fill="#ADD1B2" rx="11" ry="11" style="stroke: #A80036; stroke-width: 1.0;"/><path d="M148.4731,667.1431 Q147.8921,667.4419 147.2529,667.5913 Q146.6138,667.7407 145.9082,667.7407 Q143.4014,667.7407 142.0815,666.0889 Q140.7617,664.437 140.7617,661.3159 Q140.7617,658.1865 142.0815,656.5347 Q143.4014,654.8828 145.9082,654.8828 Q146.6138,654.8828 147.2612,655.0322 Q147.9087,655.1816 148.4731,655.4805 L148.4731,658.2031 Q147.8423,657.6221 147.2488,657.3523 Q146.6553,657.0825 146.0244,657.0825 Q144.6797,657.0825 143.9949,658.1492 Q143.3101,659.2158 143.3101,661.3159 Q143.3101,663.4077 143.9949,664.4744 Q144.6797,665.541 146.0244,665.541 Q146.6553,665.541 147.2488,665.2712 Q147.8423,665.0015 148.4731,664.4204 Z "/><text fill="#000000" font-family="sans-serif" font-size="12" lengthAdjust="spacingAndGlyphs" textLength="96" x="160" y="665.5352">ICollideWithColor</text><line style="stroke: #A80036; stroke-width: 1.5;" x1="132" x2="258" y1="677" y2="677"/><line style="stroke: #A80036; stroke-width: 1.5;" x1="132" x2="258" y1="685" y2="685"/><!--class PlayerMover--><rect fill="#FEFECE" filter="url(#fnzretdqr0vtf)" height="48" id="PlayerMover" style="stroke: #A80036; stroke-width: 1.5;" width="102" x="347.5" y="8"/><ellipse cx="362.5" cy="24" fill="#ADD1B2" rx="11" ry="11" style="stroke: #A80036; stroke-width: 1.0;"/><path d="M364.9731,30.1431 Q364.3921,30.4419 363.7529,30.5913 Q363.1138,30.7407 362.4082,30.7407 Q359.9014,30.7407 358.5815,29.0889 Q357.2617,27.437 357.2617,24.3159 Q357.2617,21.1865 358.5815,19.5347 Q359.9014,17.8828 362.4082,17.8828 Q363.1138,17.8828 363.7612,18.0322 Q364.4087,18.1816 364.9731,18.4805 L364.9731,21.2031 Q364.3423,20.6221 363.7488,20.3523 Q363.1553,20.0825 362.5244,20.0825 Q361.1797,20.0825 360.4949,21.1492 Q359.8101,22.2158 359.8101,24.3159 Q359.8101,26.4077 360.4949,27.4744 Q361.1797,28.541 362.5244,28.541 Q363.1553,28.541 363.7488,28.2712 Q364.3423,28.0015 364.9731,27.4204 Z "/><text fill="#000000" font-family="sans-serif" font-size="12" lengthAdjust="spacingAndGlyphs" textLength="70" x="376.5" y="28.5352">PlayerMover</text><line style="stroke: #A80036; stroke-width: 1.5;" x1="348.5" x2="448.5" y1="40" y2="40"/><line style="stroke: #A80036; stroke-width: 1.5;" x1="348.5" x2="448.5" y1="48" y2="48"/><!--class GameController--><rect fill="#FEFECE" filter="url(#fnzretdqr0vtf)" height="48" id="GameController" style="stroke: #A80036; stroke-width: 1.5;" width="122" x="538" y="216"/><ellipse cx="553" cy="232" fill="#ADD1B2" rx="11" ry="11" style="stroke: #A80036; stroke-width: 1.0;"/><path d="M555.4731,238.1431 Q554.8921,238.4419 554.2529,238.5913 Q553.6138,238.7407 552.9082,238.7407 Q550.4014,238.7407 549.0815,237.0889 Q547.7617,235.437 547.7617,232.3159 Q547.7617,229.1865 549.0815,227.5347 Q550.4014,225.8828 552.9082,225.8828 Q553.6138,225.8828 554.2612,226.0322 Q554.9087,226.1816 555.4731,226.4805 L555.4731,229.2031 Q554.8423,228.6221 554.2488,228.3523 Q553.6553,228.0825 553.0244,228.0825 Q551.6797,228.0825 550.9949,229.1492 Q550.3101,230.2158 550.3101,232.3159 Q550.3101,234.4077 550.9949,235.4744 Q551.6797,236.541 553.0244,236.541 Q553.6553,236.541 554.2488,236.2712 Q554.8423,236.0015 555.4731,235.4204 Z "/><text fill="#000000" font-family="sans-serif" font-size="12" lengthAdjust="spacingAndGlyphs" textLength="90" x="567" y="236.5352">GameController</text><line style="stroke: #A80036; stroke-width: 1.5;" x1="539" x2="659" y1="248" y2="248"/><line style="stroke: #A80036; stroke-width: 1.5;" x1="539" x2="659" y1="256" y2="256"/><!--class WaitViewer--><rect fill="#FEFECE" filter="url(#fnzretdqr0vtf)" height="48" id="WaitViewer" style="stroke: #A80036; stroke-width: 1.5;" width="95" x="351" y="257"/><ellipse cx="366" cy="273" fill="#ADD1B2" rx="11" ry="11" style="stroke: #A80036; stroke-width: 1.0;"/><path d="M368.4731,279.1431 Q367.8921,279.4419 367.2529,279.5913 Q366.6138,279.7407 365.9082,279.7407 Q363.4014,279.7407 362.0815,278.0889 Q360.7617,276.437 360.7617,273.3159 Q360.7617,270.1865 362.0815,268.5347 Q363.4014,266.8828 365.9082,266.8828 Q366.6138,266.8828 367.2612,267.0322 Q367.9087,267.1816 368.4731,267.4805 L368.4731,270.2031 Q367.8423,269.6221 367.2488,269.3523 Q366.6553,269.0825 366.0244,269.0825 Q364.6797,269.0825 363.9949,270.1492 Q363.3101,271.2158 363.3101,273.3159 Q363.3101,275.4077 363.9949,276.4744 Q364.6797,277.541 366.0244,277.541 Q366.6553,277.541 367.2488,277.2712 Q367.8423,277.0015 368.4731,276.4204 Z "/><text fill="#000000" font-family="sans-serif" font-size="12" lengthAdjust="spacingAndGlyphs" textLength="63" x="380" y="277.5352">WaitViewer</text><line style="stroke: #A80036; stroke-width: 1.5;" x1="352" x2="445" y1="289" y2="289"/><line style="stroke: #A80036; stroke-width: 1.5;" x1="352" x2="445" y1="297" y2="297"/><!--class GameStorageManager--><rect fill="#FEFECE" filter="url(#fnzretdqr0vtf)" height="48" id="GameStorageManager" style="stroke: #A80036; stroke-width: 1.5;" width="159" x="319" y="340"/><ellipse cx="334" cy="356" fill="#ADD1B2" rx="11" ry="11" style="stroke: #A80036; stroke-width: 1.0;"/><path d="M336.4731,362.1431 Q335.8921,362.4419 335.2529,362.5913 Q334.6138,362.7407 333.9082,362.7407 Q331.4014,362.7407 330.0815,361.0889 Q328.7617,359.437 328.7617,356.3159 Q328.7617,353.1865 330.0815,351.5347 Q331.4014,349.8828 333.9082,349.8828 Q334.6138,349.8828 335.2612,350.0322 Q335.9087,350.1816 336.4731,350.4805 L336.4731,353.2031 Q335.8423,352.6221 335.2488,352.3523 Q334.6553,352.0825 334.0244,352.0825 Q332.6797,352.0825 331.9949,353.1492 Q331.3101,354.2158 331.3101,356.3159 Q331.3101,358.4077 331.9949,359.4744 Q332.6797,360.541 334.0244,360.541 Q334.6553,360.541 335.2488,360.2712 Q335.8423,360.0015 336.4731,359.4204 Z "/><text fill="#000000" font-family="sans-serif" font-size="12" lengthAdjust="spacingAndGlyphs" textLength="127" x="348" y="360.5352">GameStorageManager</text><line style="stroke: #A80036; stroke-width: 1.5;" x1="320" x2="477" y1="372" y2="372"/><line style="stroke: #A80036; stroke-width: 1.5;" x1="320" x2="477" y1="380" y2="380"/><!--class GameGod--><rect fill="#FEFECE" filter="url(#fnzretdqr0vtf)" height="48" id="GameGod" style="stroke: #A80036; stroke-width: 1.5;" width="90" x="353.5" y="91"/><ellipse cx="368.5" cy="107" fill="#ADD1B2" rx="11" ry="11" style="stroke: #A80036; stroke-width: 1.0;"/><path d="M370.9731,113.1431 Q370.3921,113.4419 369.7529,113.5913 Q369.1138,113.7407 368.4082,113.7407 Q365.9014,113.7407 364.5815,112.0889 Q363.2617,110.437 363.2617,107.3159 Q363.2617,104.1865 364.5815,102.5347 Q365.9014,100.8828 368.4082,100.8828 Q369.1138,100.8828 369.7612,101.0322 Q370.4087,101.1816 370.9731,101.4805 L370.9731,104.2031 Q370.3423,103.6221 369.7488,103.3523 Q369.1553,103.0825 368.5244,103.0825 Q367.1797,103.0825 366.4949,104.1492 Q365.8101,105.2158 365.8101,107.3159 Q365.8101,109.4077 366.4949,110.4744 Q367.1797,111.541 368.5244,111.541 Q369.1553,111.541 369.7488,111.2712 Q370.3423,111.0015 370.9731,110.4204 Z "/><text fill="#000000" font-family="sans-serif" font-size="12" lengthAdjust="spacingAndGlyphs" textLength="58" x="382.5" y="111.5352">GameGod</text><line style="stroke: #A80036; stroke-width: 1.5;" x1="354.5" x2="442.5" y1="123" y2="123"/><line style="stroke: #A80036; stroke-width: 1.5;" x1="354.5" x2="442.5" y1="131" y2="131"/><!--class ColorBarrier--><rect fill="#FEFECE" filter="url(#fnzretdqr0vtf)" height="48" id="ColorBarrier" style="stroke: #A80036; stroke-width: 1.5;" width="101" x="348" y="423"/><ellipse cx="363" cy="439" fill="#ADD1B2" rx="11" ry="11" style="stroke: #A80036; stroke-width: 1.0;"/><path d="M365.4731,445.1431 Q364.8921,445.4419 364.2529,445.5913 Q363.6138,445.7407 362.9082,445.7407 Q360.4014,445.7407 359.0815,444.0889 Q357.7617,442.437 357.7617,439.3159 Q357.7617,436.1865 359.0815,434.5347 Q360.4014,432.8828 362.9082,432.8828 Q363.6138,432.8828 364.2612,433.0322 Q364.9087,433.1816 365.4731,433.4805 L365.4731,436.2031 Q364.8423,435.6221 364.2488,435.3523 Q363.6553,435.0825 363.0244,435.0825 Q361.6797,435.0825 360.9949,436.1492 Q360.3101,437.2158 360.3101,439.3159 Q360.3101,441.4077 360.9949,442.4744 Q361.6797,443.541 363.0244,443.541 Q363.6553,443.541 364.2488,443.2712 Q364.8423,443.0015 365.4731,442.4204 Z "/><text fill="#000000" font-family="sans-serif" font-size="12" lengthAdjust="spacingAndGlyphs" textLength="69" x="377" y="443.5352">ColorBarrier</text><line style="stroke: #A80036; stroke-width: 1.5;" x1="349" x2="448" y1="455" y2="455"/><line style="stroke: #A80036; stroke-width: 1.5;" x1="349" x2="448" y1="463" y2="463"/><!--class Respawner--><rect fill="#FEFECE" filter="url(#fnzretdqr0vtf)" height="48" id="Respawner" style="stroke: #A80036; stroke-width: 1.5;" width="96" x="350.5" y="694"/><ellipse cx="365.5" cy="710" fill="#ADD1B2" rx="11" ry="11" style="stroke: #A80036; stroke-width: 1.0;"/><path d="M367.9731,716.1431 Q367.3921,716.4419 366.7529,716.5913 Q366.1138,716.7407 365.4082,716.7407 Q362.9014,716.7407 361.5815,715.0889 Q360.2617,713.437 360.2617,710.3159 Q360.2617,707.1865 361.5815,705.5347 Q362.9014,703.8828 365.4082,703.8828 Q366.1138,703.8828 366.7612,704.0322 Q367.4087,704.1816 367.9731,704.4805 L367.9731,707.2031 Q367.3423,706.6221 366.7488,706.3523 Q366.1553,706.0825 365.5244,706.0825 Q364.1797,706.0825 363.4949,707.1492 Q362.8101,708.2158 362.8101,710.3159 Q362.8101,712.4077 363.4949,713.4744 Q364.1797,714.541 365.5244,714.541 Q366.1553,714.541 366.7488,714.2712 Q367.3423,714.0015 367.9731,713.4204 Z "/><text fill="#000000" font-family="sans-serif" font-size="12" lengthAdjust="spacingAndGlyphs" textLength="64" x="379.5" y="714.5352">Respawner</text><line style="stroke: #A80036; stroke-width: 1.5;" x1="351.5" x2="445.5" y1="726" y2="726"/><line style="stroke: #A80036; stroke-width: 1.5;" x1="351.5" x2="445.5" y1="734" y2="734"/><!--class Spikes--><rect fill="#FEFECE" filter="url(#fnzretdqr0vtf)" height="48" id="Spikes" style="stroke: #A80036; stroke-width: 1.5;" width="69" x="364" y="779"/><ellipse cx="379" cy="795" fill="#ADD1B2" rx="11" ry="11" style="stroke: #A80036; stroke-width: 1.0;"/><path d="M381.4731,801.1431 Q380.8921,801.4419 380.2529,801.5913 Q379.6138,801.7407 378.9082,801.7407 Q376.4014,801.7407 375.0815,800.0889 Q373.7617,798.437 373.7617,795.3159 Q373.7617,792.1865 375.0815,790.5347 Q376.4014,788.8828 378.9082,788.8828 Q379.6138,788.8828 380.2612,789.0322 Q380.9087,789.1816 381.4731,789.4805 L381.4731,792.2031 Q380.8423,791.6221 380.2488,791.3523 Q379.6553,791.0825 379.0244,791.0825 Q377.6797,791.0825 376.9949,792.1492 Q376.3101,793.2158 376.3101,795.3159 Q376.3101,797.4077 376.9949,798.4744 Q377.6797,799.541 379.0244,799.541 Q379.6553,799.541 380.2488,799.2712 Q380.8423,799.0015 381.4731,798.4204 Z "/><text fill="#000000" font-family="sans-serif" font-size="12" lengthAdjust="spacingAndGlyphs" textLength="37" x="393" y="799.5352">Spikes</text><line style="stroke: #A80036; stroke-width: 1.5;" x1="365" x2="432" y1="811" y2="811"/><line style="stroke: #A80036; stroke-width: 1.5;" x1="365" x2="432" y1="819" y2="819"/><!--class Laser--><rect fill="#FEFECE" filter="url(#fnzretdqr0vtf)" height="48" id="Laser" style="stroke: #A80036; stroke-width: 1.5;" width="63" x="367" y="863"/><ellipse cx="382" cy="879" fill="#ADD1B2" rx="11" ry="11" style="stroke: #A80036; stroke-width: 1.0;"/><path d="M384.4731,885.1431 Q383.8921,885.4419 383.2529,885.5913 Q382.6138,885.7407 381.9082,885.7407 Q379.4014,885.7407 378.0815,884.0889 Q376.7617,882.437 376.7617,879.3159 Q376.7617,876.1865 378.0815,874.5347 Q379.4014,872.8828 381.9082,872.8828 Q382.6138,872.8828 383.2612,873.0322 Q383.9087,873.1816 384.4731,873.4805 L384.4731,876.2031 Q383.8423,875.6221 383.2488,875.3523 Q382.6553,875.0825 382.0244,875.0825 Q380.6797,875.0825 379.9949,876.1492 Q379.3101,877.2158 379.3101,879.3159 Q379.3101,881.4077 379.9949,882.4744 Q380.6797,883.541 382.0244,883.541 Q382.6553,883.541 383.2488,883.2712 Q383.8423,883.0015 384.4731,882.4204 Z "/><text fill="#000000" font-family="sans-serif" font-size="12" lengthAdjust="spacingAndGlyphs" textLength="31" x="396" y="883.5352">Laser</text><line style="stroke: #A80036; stroke-width: 1.5;" x1="368" x2="429" y1="895" y2="895"/><line style="stroke: #A80036; stroke-width: 1.5;" x1="368" x2="429" y1="903" y2="903"/><!--class Jumper--><rect fill="#FEFECE" filter="url(#fnzretdqr0vtf)" height="48" id="Jumper" style="stroke: #A80036; stroke-width: 1.5;" width="74" x="361.5" y="589"/><ellipse cx="376.5" cy="605" fill="#ADD1B2" rx="11" ry="11" style="stroke: #A80036; stroke-width: 1.0;"/><path d="M378.9731,611.1431 Q378.3921,611.4419 377.7529,611.5913 Q377.1138,611.7407 376.4082,611.7407 Q373.9014,611.7407 372.5815,610.0889 Q371.2617,608.437 371.2617,605.3159 Q371.2617,602.1865 372.5815,600.5347 Q373.9014,598.8828 376.4082,598.8828 Q377.1138,598.8828 377.7612,599.0322 Q378.4087,599.1816 378.9731,599.4805 L378.9731,602.2031 Q378.3423,601.6221 377.7488,601.3523 Q377.1553,601.0825 376.5244,601.0825 Q375.1797,601.0825 374.4949,602.1492 Q373.8101,603.2158 373.8101,605.3159 Q373.8101,607.4077 374.4949,608.4744 Q375.1797,609.541 376.5244,609.541 Q377.1553,609.541 377.7488,609.2712 Q378.3423,609.0015 378.9731,608.4204 Z "/><text fill="#000000" font-family="sans-serif" font-size="12" lengthAdjust="spacingAndGlyphs" textLength="42" x="390.5" y="609.5352">Jumper</text><line style="stroke: #A80036; stroke-width: 1.5;" x1="362.5" x2="434.5" y1="621" y2="621"/><line style="stroke: #A80036; stroke-width: 1.5;" x1="362.5" x2="434.5" y1="629" y2="629"/><!--class ColorDeployer--><rect fill="#FEFECE" filter="url(#fnzretdqr0vtf)" height="48" id="ColorDeployer" style="stroke: #A80036; stroke-width: 1.5;" width="114" x="341.5" y="506"/><ellipse cx="356.5" cy="522" fill="#ADD1B2" rx="11" ry="11" style="stroke: #A80036; stroke-width: 1.0;"/><path d="M358.9731,528.1431 Q358.3921,528.4419 357.7529,528.5913 Q357.1138,528.7407 356.4082,528.7407 Q353.9014,528.7407 352.5815,527.0889 Q351.2617,525.437 351.2617,522.3159 Q351.2617,519.1865 352.5815,517.5347 Q353.9014,515.8828 356.4082,515.8828 Q357.1138,515.8828 357.7612,516.0322 Q358.4087,516.1816 358.9731,516.4805 L358.9731,519.2031 Q358.3423,518.6221 357.7488,518.3523 Q357.1553,518.0825 356.5244,518.0825 Q355.1797,518.0825 354.4949,519.1492 Q353.8101,520.2158 353.8101,522.3159 Q353.8101,524.4077 354.4949,525.4744 Q355.1797,526.541 356.5244,526.541 Q357.1553,526.541 357.7488,526.2712 Q358.3423,526.0015 358.9731,525.4204 Z "/><text fill="#000000" font-family="sans-serif" font-size="12" lengthAdjust="spacingAndGlyphs" textLength="82" x="370.5" y="526.5352">ColorDeployer</text><line style="stroke: #A80036; stroke-width: 1.5;" x1="342.5" x2="454.5" y1="538" y2="538"/><line style="stroke: #A80036; stroke-width: 1.5;" x1="342.5" x2="454.5" y1="546" y2="546"/><!--class CMYK--><rect fill="#FEFECE" filter="url(#fnzretdqr0vtf)" height="48" id="CMYK" style="stroke: #A80036; stroke-width: 1.5;" width="65" x="6" y="533"/><ellipse cx="21" cy="549" fill="#ADD1B2" rx="11" ry="11" style="stroke: #A80036; stroke-width: 1.0;"/><path d="M23.4731,555.1431 Q22.8921,555.4419 22.2529,555.5913 Q21.6138,555.7407 20.9082,555.7407 Q18.4014,555.7407 17.0815,554.0889 Q15.7617,552.437 15.7617,549.3159 Q15.7617,546.1865 17.0815,544.5347 Q18.4014,542.8828 20.9082,542.8828 Q21.6138,542.8828 22.2612,543.0322 Q22.9087,543.1816 23.4731,543.4805 L23.4731,546.2031 Q22.8423,545.6221 22.2488,545.3523 Q21.6553,545.0825 21.0244,545.0825 Q19.6797,545.0825 18.9949,546.1492 Q18.3101,547.2158 18.3101,549.3159 Q18.3101,551.4077 18.9949,552.4744 Q19.6797,553.541 21.0244,553.541 Q21.6553,553.541 22.2488,553.2712 Q22.8423,553.0015 23.4731,552.4204 Z "/><text fill="#000000" font-family="sans-serif" font-size="12" lengthAdjust="spacingAndGlyphs" textLength="33" x="35" y="553.5352">CMYK</text><line style="stroke: #A80036; stroke-width: 1.5;" x1="7" x2="70" y1="565" y2="565"/><line style="stroke: #A80036; stroke-width: 1.5;" x1="7" x2="70" y1="573" y2="573"/><!--link PlayerPainter to PlayerController--><path d="M261.76,200.02 C281.6,199.73 324.9314,199.0848 324.9314,199.0848 " fill="none" id="PlayerPainter-PlayerController" style="stroke: #A80036; stroke-width: 1.0;"/><polygon fill="#A80036" points="336.93,198.9,330.8691,194.9929,324.9314,199.0848,330.9923,202.9919,336.93,198.9" style="stroke: #A80036; stroke-width: 1.0;"/><polygon fill="#A80036" points="248.68,200.22,257.7362,204.091,253.6795,200.1486,257.6219,196.0918,248.68,200.22" style="stroke: #A80036; stroke-width: 1.0;"/><line style="stroke: #A80036; stroke-width: 1.0;" x1="253.6795" x2="261.675" y1="200.1486" y2="200.02"/><!--reverse link IHasColor to PlayerController--><path d="M207.26,415.15 C225.27,372.12 264.18,290.67 319,239 C325.71,232.67 333.59,227.06 341.72,222.17 " fill="none" id="IHasColor&lt;-PlayerController" style="stroke: #A80036; stroke-width: 1.0;"/><polygon fill="#A80036" points="205.27,419.95,212.4134,413.1698,207.186,415.3317,205.0241,410.1042,205.27,419.95" style="stroke: #A80036; stroke-width: 1.0;"/><!--reverse link ICollideWithColor to PlayerController--><path d="M206.97,639.86 C220.27,603.98 242.89,541.01 259,486 C290.75,377.58 249.39,327.98 319,239 C324.12,232.46 330.57,226.86 337.56,222.08 " fill="none" id="ICollideWithColor&lt;-PlayerController" style="stroke: #A80036; stroke-width: 1.0;"/><polygon fill="#A80036" points="205.08,644.96,211.9666,637.9191,206.8231,640.2737,204.4685,635.1301,205.08,644.96" style="stroke: #A80036; stroke-width: 1.0;"/><!--link PlayerMover to PlayerController--><path d="M335.24,51.2 C316.96,60.07 299.21,72.72 289,90.5 C278.37,109 278.37,120 289,138.5 C297.33,153.01 326.3248,173.356 326.3248,173.356 " fill="none" id="PlayerMover-PlayerController" style="stroke: #A80036; stroke-width: 1.0;"/><polygon fill="#A80036" points="336.92,178.99,333.5004,172.6413,326.3248,173.356,329.7444,179.7047,336.92,178.99" style="stroke: #A80036; stroke-width: 1.0;"/><polygon fill="#A80036" points="347.25,45.9,337.4012,45.8725,342.6753,47.9179,340.6299,53.192,347.25,45.9" style="stroke: #A80036; stroke-width: 1.0;"/><line style="stroke: #A80036; stroke-width: 1.0;" x1="342.6753" x2="335.355" y1="47.9179" y2="51.15"/><!--link PlayerController to GameController--><path d="M473.13,213.58 C489.92,217.13 525.9991,224.7699 525.9991,224.7699 " fill="none" id="PlayerController-GameController" style="stroke: #A80036; stroke-width: 1.0;"/><polygon fill="#A80036" points="537.74,227.25,532.6962,222.0963,525.9991,224.7699,531.0428,229.9236,537.74,227.25" style="stroke: #A80036; stroke-width: 1.0;"/><polygon fill="#A80036" points="460.14,210.83,468.1128,216.6123,465.0309,211.8686,469.7746,208.7868,460.14,210.83" style="stroke: #A80036; stroke-width: 1.0;"/><line style="stroke: #A80036; stroke-width: 1.0;" x1="465.0309" x2="472.855" y1="211.8686" y2="213.52"/><!--link WaitViewer to GameController--><path d="M459.04,268.7 C479.76,264.42 526.0674,254.8543 526.0674,254.8543 " fill="none" id="WaitViewer-GameController" style="stroke: #A80036; stroke-width: 1.0;"/><polygon fill="#A80036" points="537.82,252.43,531.1356,249.7246,526.0674,254.8543,532.7518,257.5597,537.82,252.43" style="stroke: #A80036; stroke-width: 1.0;"/><polygon fill="#A80036" points="446.04,271.39,455.663,273.4872,450.9367,270.3788,454.0451,265.6525,446.04,271.39" style="stroke: #A80036; stroke-width: 1.0;"/><line style="stroke: #A80036; stroke-width: 1.0;" x1="450.9367" x2="458.77" y1="270.3788" y2="268.755"/><!--link GameStorageManager to GameController--><path d="M457.9,333.66 C464.74,329.84 471.57,325.9 478,322 C503.74,306.38 554.9597,271.0749 554.9597,271.0749 " fill="none" id="GameStorageManager-GameController" style="stroke: #A80036; stroke-width: 1.0;"/><polygon fill="#A80036" points="564.76,264.15,557.5516,264.3457,554.9597,271.0749,562.1681,270.8792,564.76,264.15" style="stroke: #A80036; stroke-width: 1.0;"/><polygon fill="#A80036" points="446.46,339.94,456.2743,339.1161,450.8432,337.5342,452.4251,332.103,446.46,339.94" style="stroke: #A80036; stroke-width: 1.0;"/><line style="stroke: #A80036; stroke-width: 1.0;" x1="450.8432" x2="457.85" y1="337.5342" y2="333.69"/><!--link GameGod to GameController--><path d="M455.27,142.99 C463,147.19 470.76,151.6 478,156 C504.43,172.06 556.2143,208.7594 556.2143,208.7594 " fill="none" id="GameGod-GameController" style="stroke: #A80036; stroke-width: 1.0;"/><polygon fill="#A80036" points="565.91,215.83,563.419,209.0628,556.2143,208.7594,558.7053,215.5266,565.91,215.83" style="stroke: #A80036; stroke-width: 1.0;"/><polygon fill="#A80036" points="443.65,136.79,449.7108,144.5531,448.0624,139.1418,453.4737,137.4933,443.65,136.79" style="stroke: #A80036; stroke-width: 1.0;"/><line style="stroke: #A80036; stroke-width: 1.0;" x1="448.0624" x2="455.12" y1="139.1418" y2="142.905"/><!--reverse link ICollideWithColor to ColorBarrier--><path d="M217.15,626.8 C238.57,587.33 274.8,528.66 319,489 C327.51,481.36 337.66,474.63 347.79,468.92 " fill="none" id="ICollideWithColor&lt;-ColorBarrier" style="stroke: #A80036; stroke-width: 1.0;"/><polygon fill="none" points="223.23,630.28,207.72,644.72,210.84,623.76,223.23,630.28" style="stroke: #A80036; stroke-width: 1.0;"/><!--reverse link ICollideWithColor to Respawner--><path d="M278.74,689.12 C303.09,695.04 328.88,701.31 350.19,706.5 " fill="none" id="ICollideWithColor&lt;-Respawner" style="stroke: #A80036; stroke-width: 1.0;"/><polygon fill="none" points="276.98,695.9,259.2,684.37,280.29,682.29,276.98,695.9" style="stroke: #A80036; stroke-width: 1.0;"/><!--reverse link ICollideWithColor to Spikes--><path d="M242.17,705.48 C264.81,722.76 292.79,743.23 319,760 C333.27,769.13 349.62,778.28 363.69,785.78 " fill="none" id="ICollideWithColor&lt;-Spikes" style="stroke: #A80036; stroke-width: 1.0;"/><polygon fill="none" points="237.57,710.77,226.02,693,246.12,699.69,237.57,710.77" style="stroke: #A80036; stroke-width: 1.0;"/><!--reverse link ICollideWithColor to Laser--><path d="M217.68,710.82 C239.29,749.39 275.48,806.36 319,845 C332.99,857.42 351.29,867.48 366.7,874.64 " fill="none" id="ICollideWithColor&lt;-Laser" style="stroke: #A80036; stroke-width: 1.0;"/><polygon fill="none" points="211.41,713.94,208.01,693.02,223.71,707.25,211.41,713.94" style="stroke: #A80036; stroke-width: 1.0;"/><!--reverse link ICollideWithColor to Jumper--><path d="M278.66,646.03 C307.41,638.04 338.19,629.48 361.22,623.08 " fill="none" id="ICollideWithColor&lt;-Jumper" style="stroke: #A80036; stroke-width: 1.0;"/><polygon fill="none" points="280.35,652.82,259.2,651.43,276.6,639.34,280.35,652.82" style="stroke: #A80036; stroke-width: 1.0;"/><!--reverse link IHasColor to ColorDeployer--><path d="M257.31,470.17 C284.09,481.6 315.28,494.91 341.43,506.07 " fill="none" id="IHasColor&lt;-ColorDeployer" style="stroke: #A80036; stroke-width: 1.0;"/><polygon fill="none" points="254.38,476.53,238.73,462.24,259.88,463.65,254.38,476.53" style="stroke: #A80036; stroke-width: 1.0;"/><!--reverse link IHasColor to ColorBarrier--><path d="M259.02,444.94 C287.6,445.36 320.93,445.86 347.72,446.26 " fill="none" id="IHasColor&lt;-ColorBarrier" style="stroke: #A80036; stroke-width: 1.0;"/><polygon fill="none" points="258.63,451.93,238.73,444.64,258.83,437.93,258.63,451.93" style="stroke: #A80036; stroke-width: 1.0;"/><!--reverse link IHasColor to Jumper--><path d="M228.47,484.08 C251.74,511.13 284.9,546.43 319,572 C331.92,581.68 347.44,590.32 361.27,597.14 " fill="none" id="IHasColor&lt;-Jumper" style="stroke: #A80036; stroke-width: 1.0;"/><polygon fill="none" points="222.85,488.27,215.33,468.46,233.56,479.26,222.85,488.27" style="stroke: #A80036; stroke-width: 1.0;"/><!--reverse link CMYK to ICollideWithColor--><path d="M75.2,582.88 C101,601.58 135.6,626.66 160.8,644.93 " fill="none" id="CMYK&lt;-ICollideWithColor" style="stroke: #A80036; stroke-width: 1.0;"/><polygon fill="#A80036" points="71.14,579.94,76.0963,588.4509,75.1941,582.8664,80.7786,581.9642,71.14,579.94" style="stroke: #A80036; stroke-width: 1.0;"/><!--reverse link CMYK to IHasColor--><path d="M75.21,530.88 C101.1,511.94 135.85,486.53 161.07,468.08 " fill="none" id="CMYK&lt;-IHasColor" style="stroke: #A80036; stroke-width: 1.0;"/><polygon fill="#A80036" points="71.14,533.86,80.7621,531.7589,75.1707,530.9013,76.0282,525.3099,71.14,533.86" style="stroke: #A80036; stroke-width: 1.0;"/><!--reverse link CMYK to ColorBarrier--><path d="M47.28,527.62 C58.75,490.91 84.11,429.68 131,403 C200.9,363.23 296.75,396.49 352.41,422.78 " fill="none" id="CMYK&lt;-ColorBarrier" style="stroke: #A80036; stroke-width: 1.0;"/><polygon fill="#A80036" points="45.68,532.85,52.128,525.4053,47.1364,528.0668,44.4749,523.0751,45.68,532.85" style="stroke: #A80036; stroke-width: 1.0;"/><!--reverse link CMYK to ColorDeployer--><path d="M76.41,554.22 C139.27,549.48 267.44,539.81 341.42,534.23 " fill="none" id="CMYK&lt;-ColorDeployer" style="stroke: #A80036; stroke-width: 1.0;"/><polygon fill="#A80036" points="71.27,554.6,80.5517,557.8939,76.2551,554.2143,79.9347,549.9177,71.27,554.6" style="stroke: #A80036; stroke-width: 1.0;"/><!--reverse link CMYK to Jumper--><path d="M76.5,562.79 C145.49,573.58 292.95,596.65 361.32,607.34 " fill="none" id="CMYK&lt;-Jumper" style="stroke: #A80036; stroke-width: 1.0;"/><polygon fill="#A80036" points="71.27,561.97,79.5455,567.31,76.2102,562.741,80.7792,559.4057,71.27,561.97" style="stroke: #A80036; stroke-width: 1.0;"/><!--reverse link CMYK to Laser--><path d="M42.03,586.41 C48.05,638.06 67.84,745.22 131,805 C197.8,868.22 312.24,882.77 366.81,886.07 " fill="none" id="CMYK&lt;-Laser" style="stroke: #A80036; stroke-width: 1.0;"/><polygon fill="#A80036" points="41.46,581.29,38.4872,590.6795,42.0169,586.2589,46.4375,589.7885,41.46,581.29" style="stroke: #A80036; stroke-width: 1.0;"/><!--reverse link CMYK to PlayerController--><path d="M48.28,527.63 C61.29,487.79 88.82,415.99 131,367 C189.18,299.43 281.1,249.47 340.34,222.04 " fill="none" id="CMYK&lt;-PlayerController" style="stroke: #A80036; stroke-width: 1.0;"/><polygon fill="#A80036" points="46.61,532.79,53.1715,525.4451,48.1396,528.0297,45.555,522.9978,46.61,532.79" style="stroke: #A80036; stroke-width: 1.0;"/><!--reverse link CMYK to PlayerPainter--><path d="M43.21,527.46 C51.39,471.18 74.86,346.32 131,258 C138.83,245.68 150.03,234.36 160.82,225.11 " fill="none" id="CMYK&lt;-PlayerPainter" style="stroke: #A80036; stroke-width: 1.0;"/><polygon fill="#A80036" points="42.47,532.69,47.7127,524.3525,43.1831,527.7411,39.7945,523.2115,42.47,532.69" style="stroke: #A80036; stroke-width: 1.0;"/><!--reverse link CMYK to Respawner--><path d="M47.48,586.49 C59.12,623.03 84.59,683.78 131,711 C198.87,750.81 294.12,740.83 350.46,729.64 " fill="none" id="CMYK&lt;-Respawner" style="stroke: #A80036; stroke-width: 1.0;"/><polygon fill="#A80036" points="45.87,581.28,44.6998,591.0591,47.3434,586.058,52.3446,588.7016,45.87,581.28" style="stroke: #A80036; stroke-width: 1.0;"/><!--reverse link CMYK to Spikes--><path d="M45.08,586.09 C54.79,628.37 78.93,706.21 131,747 C200.04,801.09 308.95,806.19 363.71,804.9 " fill="none" id="CMYK&lt;-Spikes" style="stroke: #A80036; stroke-width: 1.0;"/><polygon fill="#A80036" points="43.97,581.11,42.0176,590.7634,45.0547,585.9909,49.8271,589.028,43.97,581.11" style="stroke: #A80036; stroke-width: 1.0;"/><!--
@startuml akiha class diagram

left to right direction

PlayerPainter<- -*PlayerController
IHasColor<- -PlayerController
ICollideWithColor<- -PlayerController
PlayerMover<-*PlayerController

PlayerController<- -*GameController
WaitViewer<- -*GameController
GameStorageManager<- -*GameController
GameGod<- -*GameController

ICollideWithColor<|- - ColorBarrier
ICollideWithColor<|- - Respawner
ICollideWithColor<|- - Spikes
ICollideWithColor<|- - Laser
ICollideWithColor<|- - Jumper

IHasColor<|- - ColorDeployer
IHasColor<|- - ColorBarrier
IHasColor<|- - Jumper

CMYK<- - ICollideWithColor
CMYK<- - IHasColor
CMYK<- - ColorBarrier
CMYK<- - ColorDeployer
CMYK<- - Jumper
CMYK<- - Laser
CMYK<- - PlayerController
CMYK<- - PlayerPainter
CMYK<- - Respawner
CMYK<- - Spikes

@enduml

PlantUML version 1.2019.09(Tue Aug 27 01:19:51 JST 2019)
(GPL source distribution)
Java Runtime: Java(TM) SE Runtime Environment
JVM: Java HotSpot(TM) 64-Bit Server VM
Java Version: 1.8.0_131-b11
Operating System: Mac OS X
OS Version: 10.15.3
Default Encoding: UTF-8
Language: ja
Country: JP
--></g></svg>